<?xml version="1.0" standalone="no"?>
<!DOCTYPE svg PUBLIC "-//W3C//DTD SVG 20010904//EN"
 "http://www.w3.org/TR/2001/REC-SVG-20010904/DTD/svg10.dtd">
<svg version="1.0" xmlns="http://www.w3.org/2000/svg"
 width="225.000000pt" height="225.000000pt" viewBox="0 0 225.000000 225.000000"
 preserveAspectRatio="xMidYMid meet">
<metadata>
Created by potrace 1.14, written by Peter Selinger 2001-2017
</metadata>
<g transform="translate(0.000000,225.000000) scale(0.100000,-0.100000)"
fill="#000000" stroke="none">
<path d="M935 2156 c-85 -20 -139 -41 -182 -70 -35 -24 -46 -26 -148 -26 -88
0 -117 -4 -145 -19 -50 -26 -80 -74 -80 -127 l0 -44 745 0 745 0 0 44 c0 53
-30 101 -80 127 -28 15 -57 19 -144 19 -103 0 -112 2 -155 29 -86 55 -169 73
-341 77 -108 3 -173 -1 -215 -10z"/>
<path d="M322 1859 c-9 -4 -26 -17 -37 -29 -20 -22 -20 -40 -25 -739 l-5 -716
-64 -6 c-56 -5 -68 -11 -93 -38 -27 -30 -28 -36 -28 -134 0 -67 4 -107 12
-115 17 -17 2069 -17 2086 0 8 8 12 48 12 115 0 98 -1 104 -28 134 -25 27 -37
33 -93 38 l-64 6 -5 717 -5 718 -26 25 -25 26 -798 2 c-438 1 -805 -1 -814 -4z
m526 -263 c94 -48 143 -125 150 -236 6 -98 -20 -162 -89 -224 -167 -150 -426
-64 -470 157 -28 139 69 292 207 326 59 15 147 5 202 -23z m809 3 c110 -53
178 -188 154 -306 -44 -221 -303 -307 -470 -157 -69 62 -95 126 -89 224 3 43
12 89 21 107 39 75 112 133 192 154 46 12 144 1 192 -22z m37 -788 c85 -20
139 -113 115 -198 -12 -46 -62 -98 -102 -108 -12 -3 -284 -4 -605 -3 l-583 3
-39 41 c-43 47 -58 104 -41 157 15 44 71 97 113 107 46 11 1094 12 1142 1z
m-557 -657 c-3 -3 -12 -4 -19 -1 -8 3 -5 6 6 6 11 1 17 -2 13 -5z"/>
<path d="M645 1494 c-46 -24 -63 -43 -81 -90 -41 -108 34 -224 145 -226 142
-2 224 138 151 257 -41 66 -147 95 -215 59z"/>
<path d="M1447 1487 c-76 -47 -104 -131 -69 -209 52 -119 209 -137 287 -33 54
70 39 178 -32 232 -50 39 -133 43 -186 10z"/>
<path d="M76 1525 c-67 -62 -88 -196 -45 -295 20 -46 59 -90 80 -90 5 0 9 92
9 205 0 113 -4 205 -9 205 -4 0 -20 -11 -35 -25z"/>
<path d="M2130 1345 c0 -113 4 -205 9 -205 21 0 60 44 80 90 29 68 30 162 2
225 -19 43 -64 95 -82 95 -5 0 -9 -92 -9 -205z"/>
</g>
</svg>
